<svg xmlns="http://www.w3.org/2000/svg" width="1200" height="760" viewBox="0 0 1200 760">
  <defs>
    <linearGradient id="bg" x1="0" y1="0" x2="1" y2="1"><stop stop-color="#edf3fb"/><stop offset="1" stop-color="#ced9e9"/></linearGradient>
    <filter id="shadow" x="-30%" y="-30%" width="160%" height="170%"><feDropShadow dx="0" dy="26" stdDeviation="22" flood-color="#314968" flood-opacity=".22"/></filter>
  </defs>
  <rect width="1200" height="760" fill="url(#bg)"/>
  <circle cx="145" cy="124" r="170" fill="#fff" opacity=".45"/><circle cx="1040" cy="650" r="270" fill="#fff" opacity=".28"/>
  <text x="600" y="76" text-anchor="middle" font-family="Microsoft YaHei UI, Arial" font-size="24" font-weight="700" fill="#43536a">A · 半透明现代卡片（推荐方向）</text>
  <g filter="url(#shadow)">
    <rect x="390" y="112" width="470" height="575" rx="25" fill="#ffffff" fill-opacity=".84" stroke="#fff" stroke-width="2"/>
    <rect x="390" y="112" width="470" height="57" rx="25" fill="#ffffff" fill-opacity=".42"/>
    <path d="M390 169h470" stroke="#dfe6ef"/>
    <circle cx="424" cy="140" r="6" fill="#6d9ff2"/>
    <text x="440" y="146" font-family="Microsoft YaHei UI, Arial" font-size="16" font-weight="700" fill="#26364d">灵感收集</text>
    <text x="792" y="147" font-family="Arial" font-size="24" fill="#8090a4">−</text><text x="824" y="146" font-family="Arial" font-size="21" fill="#8090a4">×</text>
    <rect x="414" y="188" width="325" height="46" rx="11" fill="#fff" stroke="#dbe3ef"/>
    <text x="430" y="217" font-family="Microsoft YaHei UI, Arial" font-size="14" fill="#9aa8b9">写下此刻想做的事…</text>
    <rect x="748" y="188" width="88" height="46" rx="11" fill="#3f72cc"/>
    <text x="792" y="217" text-anchor="middle" font-family="Microsoft YaHei UI, Arial" font-size="14" font-weight="700" fill="#fff">记录</text>
    <path d="M414 251h422" stroke="#e8edf5"/>
    <text x="426" y="293" font-family="Arial" font-size="19" fill="#73839a">⌄</text><rect x="450" y="277" width="19" height="19" rx="6" fill="#fff" stroke="#98aabd" stroke-width="2"/>
    <text x="483" y="293" font-family="Microsoft YaHei UI, Arial" font-size="16" fill="#26364d">做桌面灵感挂件</text>
    <text x="806" y="293" font-family="Microsoft YaHei UI, Arial" font-size="12" fill="#8796a8">1 / 3</text>
    <path d="M461 311v94" stroke="#d9e2ef" stroke-width="2"/>
    <rect x="482" y="322" width="17" height="17" rx="5" fill="#3f72cc"/><path d="m486 330 4 4 7-8" fill="none" stroke="#fff" stroke-width="2"/>
    <text x="513" y="337" font-family="Microsoft YaHei UI, Arial" font-size="14" fill="#64748b">画页面原型</text>
    <rect x="482" y="353" width="17" height="17" rx="5" fill="#fff" stroke="#98aabd" stroke-width="2"/><text x="513" y="368" font-family="Microsoft YaHei UI, Arial" font-size="14" fill="#64748b">选择桌面技术</text>
    <rect x="482" y="384" width="17" height="17" rx="5" fill="#fff" stroke="#98aabd" stroke-width="2"/><text x="513" y="399" font-family="Microsoft YaHei UI, Arial" font-size="14" fill="#64748b">打包 Windows 安装包</text>
    <text x="482" y="430" font-family="Microsoft YaHei UI, Arial" font-size="13" fill="#547fc9">+ 添加子 Note</text>
    <path d="M414 449h422" stroke="#eef2f6"/>
    <text x="426" y="486" font-family="Arial" font-size="18" fill="#73839a">›</text><rect x="450" y="470" width="19" height="19" rx="6" fill="#fff" stroke="#98aabd" stroke-width="2"/>
    <text x="483" y="486" font-family="Microsoft YaHei UI, Arial" font-size="16" fill="#26364d">研究 Android 与 Windows 同步</text><text x="806" y="486" font-family="Microsoft YaHei UI, Arial" font-size="12" fill="#8796a8">0 / 2</text>
    <path d="M414 511h422" stroke="#eef2f6"/>
    <text x="426" y="548" font-family="Arial" font-size="18" fill="#73839a">›</text><rect x="450" y="532" width="19" height="19" rx="6" fill="#fff" stroke="#98aabd" stroke-width="2"/>
    <text x="483" y="548" font-family="Microsoft YaHei UI, Arial" font-size="16" fill="#26364d">整理下周要学习的内容</text>
    <path d="M390 610h470" stroke="#dfe6ef"/><text x="625" y="651" text-anchor="middle" font-family="Microsoft YaHei UI, Arial" font-size="14" fill="#4f78c4">查看全部记录</text>
  </g>
  <text x="600" y="726" text-anchor="middle" font-family="Microsoft YaHei UI, Arial" font-size="15" fill="#617188">窗口可拖动、可缩放；右上角收起 / 关闭；完整列表中再放搜索按钮。</text>
</svg>
